<svg xmlns="http://www.w3.org/2000/svg" xmlns:xlink="http://www.w3.org/1999/xlink" version="1.1" data-diagram-type="ACTIVITY" style="width:226px;height:324px;background:#FFFFFF;" width="226px" height="324px" viewBox="0 0 226 324" zoomAndPan="magnify" preserveAspectRatio="none" contentStyleType="text/css"><?plantuml 1.2026.8?><defs/><g font-family="sans-serif" lengthAdjust="spacing"><g class="start_entity" data-qualified-name="start" id="ent0001" data-source-line="1"><ellipse cx="109.78" cy="16" rx="10" ry="10" fill="#222" style="stroke:#222;stroke-width:1;"/></g><rect x="7" y="66" width="205.555" height="34.133" fill="#F1F1F1" style="stroke:#181818;stroke-width:0.5;" rx="12.5" ry="12.5"/><text x="17" y="87.602" fill="#000" font-size="12" textLength="185.555">Create an Asciidoctor extension</text><rect x="93.45" y="140.13" width="32.656" height="34.133" fill="#F1F1F1" style="stroke:#181818;stroke-width:0.5;" rx="12.5" ry="12.5"/><text x="107.247" y="161.732" fill="#000" font-size="12">?</text><rect x="79.18" y="214.27" width="61.197" height="34.133" fill="#F1F1F1" style="stroke:#181818;stroke-width:0.5;" rx="12.5" ry="12.5"/><text x="89.18" y="235.872" fill="#000" font-size="12" textLength="41.197">Profits!</text><g class="end_entity" data-qualified-name="end" id="ent0008" data-source-line="4"><ellipse cx="109.78" cy="299.4" rx="11" ry="11" fill="none" style="stroke:#222;stroke-width:1.5;"/><ellipse cx="109.78" cy="299.4" rx="6" ry="6" fill="#222" style="stroke:#222;stroke-width:1;"/></g><g class="link" data-entity-1="ent0001" data-entity-2="ent0002" id="lnk3" data-source-line="1" data-link-type="dependency"><path d="M109.78,26.32 C109.78,36.58 109.78,48.27 109.78,60.72" style="stroke:#181818;stroke-width:1;" fill="none" id="start-to-Create an Asciidoctor extension"/><polygon points="109.78,65.72,113.78,56.72,109.78,60.72,105.78,56.72,109.78,65.72" fill="#181818" style="stroke:#181818;stroke-width:1;stroke-linejoin:miter;stroke-miterlimit:10;"/></g><g class="link" data-entity-1="ent0002" data-entity-2="ent0004" id="lnk5" data-source-line="2" data-link-type="dependency"><path d="M109.78,100.44 C109.78,112.16 109.78,122.88 109.78,134.65" style="stroke:#181818;stroke-width:1;" fill="none" id="Create an Asciidoctor extension-to- ? "/><polygon points="109.78,139.65,113.78,130.65,109.78,134.65,105.78,130.65,109.78,139.65" fill="#181818" style="stroke:#181818;stroke-width:1;stroke-linejoin:miter;stroke-miterlimit:10;"/></g><g class="link" data-entity-1="ent0004" data-entity-2="ent0006" id="lnk7" data-source-line="3" data-link-type="dependency"><path d="M109.78,174.57 C109.78,186.29 109.78,197.02 109.78,208.78" style="stroke:#181818;stroke-width:1;" fill="none" id=" ? -to-Profits!"/><polygon points="109.78,213.78,113.78,204.78,109.78,208.78,105.78,204.78,109.78,213.78" fill="#181818" style="stroke:#181818;stroke-width:1;stroke-linejoin:miter;stroke-miterlimit:10;"/></g><g class="link" data-entity-1="ent0006" data-entity-2="ent0008" id="lnk9" data-source-line="4" data-link-type="dependency"><path d="M109.78,248.66 C109.78,261.05 109.78,272.67 109.78,283.22" style="stroke:#181818;stroke-width:1;" fill="none" id="Profits!-to-end"/><polygon points="109.78,288.22,113.78,279.22,109.78,283.22,105.78,279.22,109.78,288.22" fill="#181818" style="stroke:#181818;stroke-width:1;stroke-linejoin:miter;stroke-miterlimit:10;"/></g><?plantuml-src qz3ILD3LjLDGSYvAJIn9LKZCKt0iJixCJCbFBialKaYjA4dDAyxCprFY8gW2Oew2lG9GBOY4y0EAyjCoIueLWO9m9bX6GqiJ0000?></g></svg>